PathFileType	4	(X/Y/Z)	C:/Users/opensim2020/Desktop/walking_exp_matlab/subject02_walking15_straight_03.trc	
DataRate	CameraRate	NumFrames	NumMarkers	Units	OrigDataRate	OrigDataStartFrame	OrigNumFrames	
100.00	100.00	6	42	mm	100.00	1342	103	
Frame#	Time	LFHD			RFHD			LBHD			RBHD			C7			T10			CLAV			STRN			RBAK			LSHO			LUPA			LELB			LFRM			LWRA			LWRB			LFIN			RSHO			RUPA			RELB			RFRM			RWRA			RWRB			RFIN			LASI			RASI			LPSI			RPSI			LTHI			LKNE			LTIB			LANK			LHEE			LTOE			RTHI			RKNE			RTIB			RANK			RHEE			RTOE			*39			*40			*41			
		X1	Y1	Z1	X2	Y2	Z2	X3	Y3	Z3	X4	Y4	Z4	X5	Y5	Z5	X6	Y6	Z6	X7	Y7	Z7	X8	Y8	Z8	X9	Y9	Z9	X10	Y10	Z10	X11	Y11	Z11	X12	Y12	Z12	X13	Y13	Z13	X14	Y14	Z14	X15	Y15	Z15	X16	Y16	Z16	X17	Y17	Z17	X18	Y18	Z18	X19	Y19	Z19	X20	Y20	Z20	X21	Y21	Z21	X22	Y22	Z22	X23	Y23	Z23	X24	Y24	Z24	X25	Y25	Z25	X26	Y26	Z26	X27	Y27	Z27	X28	Y28	Z28	X29	Y29	Z29	X30	Y30	Z30	X31	Y31	Z31	X32	Y32	Z32	X33	Y33	Z33	X34	Y34	Z34	X35	Y35	Z35	X36	Y36	Z36	X37	Y37	Z37	X38	Y38	Z38	X39	Y39	Z39	X40	Y40	Z40	X41	Y41	Z41	X42	Y42	Z42	

65	0.640	1385.79138	129.80316	1695.89478	1529.53003	132.82831	1683.11584	1384.76147	-6.65059	1631.64746	1527.28638	-16.27347	1618.36096	1454.24634	-65.02594	1489.61792	1480.26550	-120.30067	1216.27686	1450.31274	71.92362	1419.97827	1462.74683	121.88463	1247.68042	1521.21191	-128.43231	1316.35205	1279.07703	10.25502	1457.54358	1196.39697	32.83212	1261.68457	1181.26831	68.21169	1121.16150	1198.76147	152.40500	1016.12195	1262.70032	260.37943	958.99628	1227.39539	230.94577	926.66003	1238.56287	285.57721	891.61633	1643.02051	-1.47902	1461.87000	1731.92407	-81.70890	1296.80212	1774.04663	-104.61473	1158.98572	1812.59912	-111.93187	1043.26648	1810.80847	-104.37117	904.66113	1843.50122	-148.49490	921.45801	1847.69458	-140.86659	846.52502	1340.90735	64.11935	938.53430	1593.12598	115.63099	948.28381	1460.88281	-121.15343	998.16736	1571.31995	-106.39188	1004.27942	1338.23425	-90.44698	645.28131	1396.85156	-175.65036	465.18848	1421.68677	-285.97110	305.71667	1473.11084	-337.35641	86.87839	1529.50330	-371.72925	68.08099	1441.52356	-191.10876	31.26256	1697.11792	113.10985	659.52753	1658.83411	192.66100	468.17746	1676.97888	239.63280	289.50671	1653.33008	319.03128	108.21951	1599.52209	313.78296	43.07434	1655.04858	483.34357	122.74532	1475.84009	36.51888	1772.53394	-3357.49487	2846.09985	1034.41211			 
66	0.650	1385.31128	143.90610	1693.64417	1529.09326	147.36613	1681.07153	1384.69885	7.64687	1628.97729	1527.51636	-1.41641	1616.05127	1454.58337	-50.22641	1487.01013	1481.21777	-104.87743	1213.60571	1450.44214	87.01426	1417.65210	1462.68347	137.06758	1245.36267	1521.61670	-113.03442	1313.38806	1279.32751	24.79548	1454.92126	1196.59680	48.69639	1259.57239	1181.38550	85.74243	1119.46643	1199.55725	172.67033	1017.56018	1265.26233	282.65741	965.02765	1229.74902	254.53584	931.22662	1241.96802	310.55960	898.33795	1643.10413	13.64968	1459.52405	1732.17224	-67.17102	1295.23682	1774.76892	-90.94083	1158.00293	1814.05664	-100.30247	1042.62061	1814.52368	-93.50480	904.25665	1845.81775	-138.22087	921.80646	1851.67175	-130.93947	846.97003	1340.90662	78.80927	935.88141	1593.04993	132.26576	946.04950	1462.60938	-105.43069	995.71625	1573.16748	-89.64655	1002.14386	1337.55005	-78.18546	644.02570	1396.08276	-164.88121	465.11722	1420.40442	-278.64771	308.04343	1471.59912	-335.96893	90.47050	1528.03809	-370.66168	73.27368	1441.04749	-191.09967	31.26367	1696.73706	131.12257	658.44214	1657.59253	215.36798	468.98691	1675.99329	261.78546	289.39780	1650.94763	338.63062	107.53673	1597.45361	331.34653	41.97431	1648.49023	502.81512	120.27346	1475.42273	50.71762	1770.12463	-3357.62207	2846.05469	1034.35950			 
67	0.660	1384.95667	158.18994	1691.73938	1528.56628	161.94849	1679.27747	1384.79395	21.90598	1626.63647	1527.37170	13.14674	1613.82544	1454.85742	-35.31083	1484.36902	1482.41675	-89.29433	1211.22559	1450.70337	102.19846	1415.58594	1462.85754	152.73936	1243.46008	1522.48083	-97.43966	1310.89551	1279.72253	39.25495	1452.54785	1196.62793	63.64291	1257.71863	1181.24731	102.55093	1117.94739	1200.72412	192.73119	1019.18652	1267.50989	303.93430	970.98596	1232.01355	277.30923	935.82745	1245.23254	334.70319	905.52087	1643.35840	28.99803	1457.62866	1732.44861	-52.37176	1293.85010	1775.37854	-76.96997	1157.12463	1815.95483	-87.60744	1042.51135	1818.34473	-81.77724	904.06653	1848.01880	-127.17976	922.21997	1855.69128	-119.99249	847.63403	1341.08972	94.24670	933.45099	1592.83337	149.55965	944.40533	1464.26257	-89.23603	993.41101	1574.93201	-72.51912	1000.39594	1337.47168	-64.62097	643.16809	1395.20483	-153.08395	464.77023	1419.11731	-270.63095	310.53381	1469.97876	-334.15237	94.54639	1526.05444	-369.39804	78.57566	1440.22058	-191.41313	31.35489	1696.53882	153.09683	658.89526	1655.90417	238.49002	469.49918	1674.88184	283.00616	289.38348	1648.76147	354.64996	105.86767	1595.75134	344.78442	40.15212	1642.12061	518.62256	114.89268	1475.29419	65.07221	1768.12817	-3357.20361	2846.08032	1034.31799			 
68	0.670	1384.42505	172.25864	1689.76135	1528.03430	176.72758	1677.82922	1384.92761	36.30156	1624.56641	1527.48804	27.99643	1612.01025	1455.60071	-20.46386	1482.38879	1483.75220	-73.46121	1209.06165	1450.96973	117.40022	1413.89294	1463.01099	168.55186	1241.92590	1523.60071	-81.67157	1308.65051	1280.23169	53.61108	1450.46216	1196.96545	78.77156	1256.16846	1180.79236	118.86093	1116.58630	1201.69653	212.15948	1020.87329	1269.54175	324.27185	976.85602	1234.08496	299.01501	940.60413	1248.00720	357.49423	912.51807	1643.49084	44.34874	1455.97021	1732.62964	-37.44929	1292.59009	1775.91064	-62.53051	1156.10535	1817.67029	-74.28275	1042.40662	1822.07520	-69.15682	904.12811	1850.33716	-115.06408	922.81049	1859.83936	-107.93974	848.69196	1341.48022	110.35012	931.41132	1592.57324	167.46014	943.42761	1465.88647	-72.47935	991.28796	1576.51001	-54.99226	998.81641	1337.21826	-50.16749	641.94019	1394.32971	-140.42197	464.44238	1417.99817	-261.89990	313.35037	1468.38855	-331.87704	99.33556	1524.62976	-367.36911	85.35615	1439.76245	-191.27010	31.27561	1696.28113	177.34082	660.01959	1654.78589	261.75427	470.28375	1673.39258	302.09296	288.86758	1647.06763	368.02835	103.59268	1595.09827	355.55527	37.56076	1636.40125	531.31769	108.01073	1474.68262	79.28848	1766.17456	-3360.37061	2845.32251	1034.24963			 
69	0.680	1383.87671	186.44977	1688.13550	1527.50354	191.52637	1676.61536	1385.00562	50.70481	1622.60303	1527.94727	43.10622	1610.53223	1456.32800	-5.43744	1480.47461	1485.29224	-57.37801	1206.95081	1451.32813	132.66170	1412.45740	1463.05542	184.25076	1240.54565	1525.23792	-65.78692	1306.89734	1280.91699	67.96227	1448.64392	1197.09375	93.37669	1254.84741	1180.68628	134.98082	1115.80237	1202.79150	230.88400	1022.42865	1271.26917	343.59406	982.51404	1235.70789	319.62848	945.32135	1250.39636	379.22632	919.30353	1644.25720	60.25973	1454.84851	1733.35852	-21.71237	1291.74036	1776.83997	-47.22895	1155.78003	1819.19897	-60.35306	1042.25684	1825.71655	-55.65234	904.30798	1852.62219	-102.08157	923.43738	1863.75928	-95.05636	849.65314	1341.90955	127.04266	929.68835	1592.31738	185.95633	943.14850	1467.32422	-55.03458	989.21558	1577.84290	-37.23524	997.33057	1337.09021	-35.22227	640.86377	1393.37134	-126.92570	464.33447	1417.11560	-252.54436	316.76111	1466.88403	-328.95572	104.91750	1523.06409	-364.41748	92.85295	1439.24915	-191.05396	31.23599	1695.25037	202.73222	661.12128	1653.69653	283.69824	470.33163	1671.98206	319.05475	287.59271	1645.21863	378.67310	100.37772	1594.03247	363.09674	34.32429	1631.37634	541.37189	100.28008	1474.23901	93.61958	1764.58728	-3357.32007	2845.99316	1034.33276			 
70	0.690	1383.25098	200.67009	1686.60925	1526.87329	206.33324	1675.50891	1385.16443	65.10846	1620.70361	1528.12000	58.11259	1609.08691	1456.99268	9.51064	1478.57324	1487.01648	-41.01237	1204.87268	1451.80859	147.90375	1411.24548	1463.40247	200.38530	1239.61682	1526.52026	-49.65076	1304.59668	1281.73523	82.18971	1447.05786	1197.70667	108.44996	1253.65259	1180.71558	150.40916	1114.93347	1203.01196	248.40338	1024.47620	1272.64233	361.97681	987.86285	1237.08130	339.44202	949.79523	1252.10315	399.69757	925.74390	1644.85852	76.12068	1453.86707	1734.12988	-5.67738	1290.99548	1777.84863	-31.59442	1155.40625	1820.95361	-45.45518	1042.32788	1829.16638	-41.21458	904.59167	1854.92151	-88.09095	924.00702	1867.58911	-81.08504	850.58911	1342.40344	144.47743	928.29962	1592.01013	204.90680	943.53320	1468.69165	-36.81459	987.26984	1579.13110	-19.21996	995.81036	1337.01001	-19.26855	640.17279	1392.19214	-112.46621	464.55560	1416.53259	-242.39989	320.87024	1465.51172	-325.37332	111.39119	1521.73413	-360.32791	100.95117	1438.77478	-190.63676	31.19869	1694.31348	229.44603	663.21429	1652.73682	303.82141	469.42642	1670.97192	333.87482	285.40555	1643.62231	387.37299	96.13166	1592.35010	368.59995	29.96111	1627.24634	549.20758	91.74441	1473.77698	108.03535	1763.04517	-3357.53320	2845.89526	1034.48010			 
